<?xml version="1.0" encoding="UTF-8"?>
<svg width="664px" height="133px" viewBox="0 0 664 133" version="1.1" xmlns="http://www.w3.org/2000/svg" xmlns:xlink="http://www.w3.org/1999/xlink">
    <!-- Generator: Sketch 46.2 (44496) - http://www.bohemiancoding.com/sketch -->
    <title>Rachel Bolt logo full (colour)</title>
    <desc>Created with Sketch.</desc>
    <defs></defs>
    <g id="Page-1" stroke="none" stroke-width="1" fill="none" fill-rule="evenodd">
        <g id="Rachel-Bolt---Full-logo---Facebook-Cover" transform="translate(-82.000000, -91.000000)">
            <g id="Rachel-Bolt-logo-full-(colour)" transform="translate(82.000000, 91.000000)">
                <path d="M49.2200012,1.80000487 C52.9645152,1.80000245 54.839567,1.80000245 54.8451567,1.80000487 C62.9918377,1.80353796 68.7439246,3.52351899 72.5799957,6.95999942 C76.4200149,10.4000166 78.3399957,16.0199604 78.3399957,23.8199994 C78.3399957,31.6200384 76.4400147,38.1399732 72.6399957,43.3799994 C68.8399767,48.6200256 64.2200229,52.1599902 58.7799957,53.9999994 L66.4599957,83.9999994 L53.1399957,83.9999994 L46.4199957,55.7999994 L39,55.7999994 C39,55.7999994 41.1066691,51.9595008 45.3200073,44.2785035 C46.3000183,44.2785035 47.2799988,44.2785035 47.6800079,44.2785035 C53.9799957,44.2785035 56.9799957,41.9999994 59.9799957,38.4999994 C62.9799957,34.9999994 64.5800018,29.9999994 64.5800018,25.4999994 C64.5800018,20.9999994 64.1800079,18.0999979 62.1800079,15.6999964 C60.4504623,14.2498421 57.1393764,13.4569337 52.24675,13.3212712 C45.6091976,13.3212712 42.2869472,13.3212712 42.2799988,13.3212712 C46.9066671,5.64042698 49.2200012,1.80000487 49.2200012,1.80000487 Z M118.76,84 L118.76,66.84 L91.88,66.84 L83.6,84 L70.16,84 L108.92,1.8 L132.8,1.8 L132.08,84 L118.76,84 Z M116.72,13.44 L97.04,55.08 L119.12,55.08 L119.72,13.44 L116.72,13.44 Z M168.04,85.32 C152.03992,85.32 144.04,77.4400788 144.04,61.68 C144.04,50.079942 146.03998,39.2400504 150.04,29.16 C152.200011,23.7199728 154.859984,18.900021 158.02,14.7 C161.180016,10.499979 165.159976,7.0800132 169.96,4.44 C174.760024,1.7999868 180.079971,0.48 185.92,0.48 C191.280027,0.48 197.039969,1.279992 203.2,2.88 L206.2,3.72 L203.08,13.8 C197.639973,12.6799944 191.92003,12.12 185.92,12.12 C179.91997,12.12 174.760022,14.5999752 170.44,19.56 C166.119978,24.5200248 162.94001,30.6399636 160.9,37.92 C158.85999,45.2000364 157.84,52.7999604 157.84,60.72 C157.84,69.3600432 161.79996,73.68 169.72,73.68 C174.760025,73.68 180.31997,73.2000048 186.4,72.24 L189.16,71.88 L188.2,82.44 C180.919964,84.3600096 174.200031,85.32 168.04,85.32 Z M243,84 L251.16,48 L220.32,48 L212.04,84 L198.6,84 L217.68,1.8 L231,1.8 L223.08,36.36 L253.92,36.36 L261.96,1.8 L275.28,1.8 L256.32,84 L243,84 Z M272.24,84 L291.2,1.8 L338.36,1.8 L335.6,13.44 L301.88,13.44 L296.6,36.72 L323.72,36.72 L320.96,48.48 L293.96,48.48 L288.44,72.36 L322.28,72.36 L319.52,84 L272.24,84 Z M373.48,84 L331.24,84 L350.32,1.8 L363.64,1.8 L347.44,72.36 L376.12,72.36 L373.48,84 Z M453.56,1.8 C467.400069,1.8 474.32,7.4799432 474.32,18.84 C474.32,28.84005 469.520048,36.439974 459.92,41.64 C463.200016,43.240008 465.479994,45.139989 466.76,47.34 C468.040006,49.540011 468.68,52.3599828 468.68,55.8 C468.68,64.1200416 465.940027,70.8999738 460.46,76.14 C454.979973,81.3800262 447.080052,84 436.76,84 L406.88,84 L425.84,1.8 L453.56,1.8 Z M444.56,48 L428.6,48 L422.96,72.48 L439.4,72.48 C444.200024,72.48 447.979986,71.0000148 450.74,68.04 C453.500014,65.0799852 454.88,61.1200248 454.88,56.16 C454.88,50.7199728 451.440034,48 444.56,48 Z M451.4,13.32 L436.64,13.32 L431.12,36.72 L446.12,36.72 C450.280021,36.72 453.739986,35.2800144 456.5,32.4 C459.260014,29.5199856 460.64,25.8400224 460.64,21.36 C460.64,18.559986 459.900007,16.5200064 458.42,15.24 C456.939993,13.9599936 454.600016,13.32 451.4,13.32 Z M496.12,70.38 C498.20001,72.580011 501.639976,73.68 506.44,73.68 C511.240024,73.68 515.319983,72.2000148 518.68,69.24 C523.160022,65.23998 526.679987,59.1200412 529.24,50.88 C531.800013,42.6399588 533.08,34.52004 533.08,26.52 C533.08,21.3999744 532.04001,17.7200112 529.96,15.48 C527.87999,13.2399888 524.460024,12.12 519.7,12.12 C514.939976,12.12 511.080015,13.4399868 508.12,16.08 C503.479977,20.3200212 499.800014,26.6999574 497.08,35.22 C494.359986,43.7400426 493,51.1799682 493,57.54 C493,63.9000318 494.03999,68.179989 496.12,70.38 Z M527.2,78.24 C521.11997,82.9600236 513.760043,85.32 505.12,85.32 C496.479957,85.32 490.000022,83.32002 485.68,79.32 C481.359978,75.31998 479.2,69.0400428 479.2,60.48 C479.2,50.079948 480.819984,40.2000468 484.06,30.84 C487.300016,21.4799532 491.999969,14.1200268 498.16,8.76 C504.320031,3.2399724 511.839956,0.48 520.72,0.48 C538.160087,0.48 546.88,8.7599172 546.88,25.32 C546.88,36.2000544 545.220017,46.439952 541.9,56.04 C538.579983,65.640048 533.680032,73.039974 527.2,78.24 Z M590.52,84 L548.28,84 L567.36,1.8 L580.68,1.8 L564.48,72.36 L593.16,72.36 L590.52,84 Z M607.52,13.44 L610.28,1.8 L663.32,1.8 L660.56,13.44 L640.64,13.44 L624.32,84 L611,84 L627.2,13.44 L607.52,13.44 Z" id="RACHEL-BOLT" fill="#444444"></path>
                <polygon id="Path-7-Copy-2" fill="#AB6BFC" points="44.3932879 1.80000305 23.6924756 1.80000305 9.09494702e-13 45.1068446 20.4884449 45.1068446 0.316468671 119.750739 50.9054751 26.5845458 30.1343666 26.5845458"></polygon>
                <path d="M51.84,122.32 L44.16,122.32 L44.16,132 L41.68,132 L41.68,104.2 L51.84,104.2 C54.8000148,104.2 56.979993,104.919993 58.38,106.36 C59.780007,107.800007 60.48,110.013318 60.48,113 C60.48,119.213364 57.6000288,122.32 51.84,122.32 Z M44.16,120.12 L51.84,120.12 C55.8933536,120.12 57.92,117.74669 57.92,113 C57.92,110.733322 57.4400048,109.066672 56.48,108 C55.5199952,106.933328 53.973344,106.4 51.84,106.4 L44.16,106.4 L44.16,120.12 Z M79.4,132 L79.4,104.2 L96.08,104.2 L96.08,106.44 L81.88,106.44 L81.88,116.76 L93.68,116.76 L93.68,118.96 L81.88,118.96 L81.88,129.8 L96.08,129.8 L96.08,132 L79.4,132 Z M117.96,121.04 L117.96,132 L115.48,132 L115.48,104.2 L125.68,104.2 C128.586681,104.2 130.753326,104.859993 132.18,106.18 C133.606674,107.500007 134.32,109.586652 134.32,112.44 C134.32,116.893356 132.533351,119.599995 128.96,120.56 L134.68,132 L131.92,132 L126.44,121.04 L117.96,121.04 Z M131.76,112.48 C131.76,110.39999 131.266672,108.866672 130.28,107.88 C129.293328,106.893328 127.76001,106.4 125.68,106.4 L117.96,106.4 L117.96,118.84 L125.68,118.84 C129.733354,118.84 131.76,116.720021 131.76,112.48 Z M161.6,105.96 C157.306645,105.96 155.16,107.599984 155.16,110.88 C155.16,112.80001 155.646662,114.09333 156.62,114.76 C157.593338,115.42667 159.499986,116.039997 162.34,116.6 C165.180014,117.160003 167.206661,117.933328 168.42,118.92 C169.633339,119.906672 170.24,121.559988 170.24,123.88 C170.24,126.866682 169.500007,129.019993 168.02,130.34 C166.539993,131.660007 164.373348,132.32 161.52,132.32 C159.43999,132.32 157.02668,132.133335 154.28,131.76 L152.84,131.56 L153.12,129.44 C156.773352,129.893336 159.59999,130.12 161.6,130.12 C163.60001,130.12 165.119995,129.633338 166.16,128.66 C167.200005,127.686662 167.72,126.260009 167.72,124.38 C167.72,122.499991 167.260005,121.220003 166.34,120.54 C165.419995,119.859997 163.953343,119.333335 161.94,118.96 C159.926657,118.586665 158.453338,118.246668 157.52,117.94 C156.586662,117.633332 155.713337,117.193336 154.9,116.62 C154.086663,116.046664 153.506668,115.313338 153.16,114.42 C152.813332,113.526662 152.64,112.400007 152.64,111.04 C152.64,106.186642 155.573304,103.76 161.44,103.76 C163.200009,103.76 165.493319,103.946665 168.32,104.32 L169.64,104.52 L169.44,106.64 C165.759982,106.186664 163.146674,105.96 161.6,105.96 Z M192.88,127.38 C194.000006,129.233343 196.20665,130.16 199.5,130.16 C202.79335,130.16 204.999994,129.253342 206.12,127.44 C207.240006,125.626658 207.8,122.593355 207.8,118.34 C207.8,114.086645 207.213339,110.973343 206.04,109 C204.866661,107.026657 202.680016,106.04 199.48,106.04 C196.173317,106.04 193.946672,107.106656 192.8,109.24 C192.186664,110.333339 191.766668,111.58666 191.54,113 C191.313332,114.41334 191.2,116.15999 191.2,118.24 C191.2,122.480021 191.759994,125.526657 192.88,127.38 Z M208.02,129.08 C206.459992,131.293344 203.620021,132.4 199.5,132.4 C195.379979,132.4 192.540008,131.266678 190.98,129 C189.419992,126.733322 188.64,123.153358 188.64,118.26 C188.64,113.366642 189.426659,109.733345 191,107.36 C192.573341,104.986655 195.39998,103.8 199.48,103.8 C203.56002,103.8 206.393325,104.979988 207.98,107.34 C209.566675,109.700012 210.36,113.359975 210.36,118.32 C210.36,123.280025 209.580008,126.866656 208.02,129.08 Z M230.2,132 L230.2,104.2 L235.08,104.2 L246.72,129.8 L247.64,129.8 L247.64,104.2 L250.08,104.2 L250.08,132 L245.28,132 L233.56,106.44 L232.68,106.44 L232.68,132 L230.2,132 Z M268.6,132 L276.6,104.2 L282.4,104.2 L290.36,132 L287.92,132 L285.68,124.32 L273.28,124.32 L271.08,132 L268.6,132 Z M278.4,106.36 L273.88,122.12 L285.08,122.12 L280.56,106.36 L278.4,106.36 Z M324.04,132 L308.84,132 L308.84,104.2 L311.32,104.2 L311.32,129.76 L324.04,129.76 L324.04,132 Z M361.88,106.44 L361.88,104.2 L381.88,104.2 L381.88,106.44 L373.16,106.44 L373.16,132 L370.68,132 L370.68,106.44 L361.88,106.44 Z M402.36,121.04 L402.36,132 L399.88,132 L399.88,104.2 L410.08,104.2 C412.986681,104.2 415.153326,104.859993 416.58,106.18 C418.006674,107.500007 418.72,109.586652 418.72,112.44 C418.72,116.893356 416.933351,119.599995 413.36,120.56 L419.08,132 L416.32,132 L410.84,121.04 L402.36,121.04 Z M416.16,112.48 C416.16,110.39999 415.666672,108.866672 414.68,107.88 C413.693328,106.893328 412.16001,106.4 410.08,106.4 L402.36,106.4 L402.36,118.84 L410.08,118.84 C414.133354,118.84 416.16,116.720021 416.16,112.48 Z M435.72,132 L443.72,104.2 L449.52,104.2 L457.48,132 L455.04,132 L452.8,124.32 L440.4,124.32 L438.2,132 L435.72,132 Z M445.52,106.36 L441,122.12 L452.2,122.12 L447.68,106.36 L445.52,106.36 Z M475.96,132 L475.96,104.2 L478.44,104.2 L478.44,132 L475.96,132 Z M499.4,132 L499.4,104.2 L504.28,104.2 L515.92,129.8 L516.84,129.8 L516.84,104.2 L519.28,104.2 L519.28,132 L514.48,132 L502.76,106.44 L501.88,106.44 L501.88,132 L499.4,132 Z M540.28,132 L540.28,104.2 L542.76,104.2 L542.76,132 L540.28,132 Z M563.72,132 L563.72,104.2 L568.6,104.2 L580.24,129.8 L581.16,129.8 L581.16,104.2 L583.6,104.2 L583.6,132 L578.8,132 L567.08,106.44 L566.2,106.44 L566.2,132 L563.72,132 Z M615.52,120.16 L615.52,117.96 L623.08,117.96 L623.08,131.4 C622.306663,131.560001 620.946676,131.766665 619,132.02 C617.053324,132.273335 615.440006,132.4 614.16,132.4 C610.15998,132.4 607.386674,131.226678 605.84,128.88 C604.293326,126.533322 603.52,122.973357 603.52,118.2 C603.52,115.826655 603.679998,113.800008 604,112.12 C604.320002,110.439992 604.879996,108.946673 605.68,107.64 C607.200008,105.079987 610.013313,103.8 614.12,103.8 C616.626679,103.8 619.17332,104.053331 621.76,104.56 L623.08,104.84 L622.96,106.96 C619.62665,106.346664 616.746679,106.04 614.32,106.04 C611.093317,106.04 608.913339,107.006657 607.78,108.94 C606.646661,110.873343 606.08,113.946646 606.08,118.16 C606.08,122.373354 606.646661,125.426657 607.78,127.32 C608.913339,129.213343 611.079984,130.16 614.28,130.16 C616.173343,130.16 618.293322,129.946669 620.64,129.52 L620.64,120.16 L615.52,120.16 Z" id="Personal-training" fill="#AB6BFC"></path>
            </g>
        </g>
    </g>
</svg>